<?xml version="1.0" encoding="UTF-8"?>
<svg width="700pt" height="700pt" version="1.1" viewBox="0 0 700 700" xmlns="http://www.w3.org/2000/svg" xmlns:xlink="http://www.w3.org/1999/xlink">
 <defs>
  <symbol id="w" overflow="visible">
   <path d="m19.141-1.1406c-0.98047 0.51172-2.0078 0.89844-3.0781 1.1562-1.0742 0.25781-2.1875 0.39062-3.3438 0.39062-3.4805 0-6.2344-0.96875-8.2656-2.9062-2.0234-1.9453-3.0312-4.5781-3.0312-7.8906 0-3.332 1.0078-5.9688 3.0312-7.9062 2.0312-1.9375 4.7852-2.9062 8.2656-2.9062 1.1562 0 2.2695 0.13281 3.3438 0.39062 1.0703 0.26172 2.0977 0.64844 3.0781 1.1562v4.3125c-0.99219-0.6875-1.9688-1.1875-2.9375-1.5s-1.9922-0.46875-3.0625-0.46875c-1.918 0-3.4219 0.61719-4.5156 1.8438-1.0938 1.2188-1.6406 2.9141-1.6406 5.0781 0 2.1484 0.54688 3.8359 1.6406 5.0625 1.0938 1.2305 2.5977 1.8438 4.5156 1.8438 1.0703 0 2.0938-0.15625 3.0625-0.46875 0.96875-0.32031 1.9453-0.82031 2.9375-1.5z"/>
  </symbol>
  <symbol id="c" overflow="visible">
   <path d="m14.016-11.375c-0.4375-0.19531-0.875-0.34375-1.3125-0.4375-0.42969-0.10156-0.85938-0.15625-1.2969-0.15625-1.293 0-2.2891 0.41406-2.9844 1.2344-0.6875 0.82422-1.0312 2-1.0312 3.5312v7.2031h-4.9844v-15.625h4.9844v2.5625c0.64453-1.0195 1.3828-1.7656 2.2188-2.2344 0.83203-0.46875 1.8281-0.70312 2.9844-0.70312 0.17578 0 0.35938 0.007812 0.54688 0.015625 0.19531 0.011719 0.48438 0.042969 0.85938 0.09375z"/>
  </symbol>
  <symbol id="b" overflow="visible">
   <path d="m18-7.8594v1.4219h-11.672c0.11328 1.1797 0.53125 2.0586 1.25 2.6406 0.72656 0.58594 1.75 0.875 3.0625 0.875 1.0391 0 2.1133-0.14844 3.2188-0.45312 1.1016-0.3125 2.2383-0.78516 3.4062-1.4219v3.8438c-1.1875 0.44922-2.375 0.78906-3.5625 1.0156-1.1797 0.22656-2.3555 0.34375-3.5312 0.34375-2.8242 0-5.0234-0.71875-6.5938-2.1562-1.5625-1.4375-2.3438-3.4531-2.3438-6.0469 0-2.5508 0.76562-4.5547 2.2969-6.0156 1.5391-1.457 3.6602-2.1875 6.3594-2.1875 2.457 0 4.4219 0.74219 5.8906 2.2188 1.4766 1.4805 2.2188 3.4531 2.2188 5.9219zm-5.1406-1.6562c0-0.94531-0.27734-1.7109-0.82812-2.2969-0.55469-0.58203-1.2773-0.875-2.1719-0.875-0.96094 0-1.7461 0.27734-2.3594 0.82812-0.60547 0.54297-0.98047 1.3242-1.125 2.3438z"/>
  </symbol>
  <symbol id="a" overflow="visible">
   <path d="m9.4062-7.0312c-1.043 0-1.8281 0.17969-2.3594 0.53125-0.52344 0.35547-0.78125 0.875-0.78125 1.5625 0 0.63672 0.20703 1.1328 0.625 1.4844 0.42578 0.35547 1.0195 0.53125 1.7812 0.53125 0.9375 0 1.7227-0.33203 2.3594-1 0.64453-0.67578 0.96875-1.5195 0.96875-2.5312v-0.57812zm7.625-1.8906v8.9219h-5.0312v-2.3125c-0.66797 0.94922-1.4219 1.6406-2.2656 2.0781-0.83594 0.42578-1.8516 0.64062-3.0469 0.64062-1.625 0-2.9453-0.46875-3.9531-1.4062-1-0.94531-1.5-2.1758-1.5-3.6875 0-1.832 0.62891-3.1758 1.8906-4.0312 1.2578-0.85156 3.2383-1.2812 5.9375-1.2812h2.9375v-0.39062c0-0.78906-0.3125-1.3672-0.9375-1.7344-0.625-0.375-1.5938-0.5625-2.9062-0.5625-1.0742 0-2.0742 0.10938-3 0.32812-0.91797 0.21094-1.7734 0.52734-2.5625 0.95312v-3.7969c1.0703-0.25781 2.1445-0.45703 3.2188-0.59375 1.082-0.13281 2.1641-0.20312 3.25-0.20312 2.8125 0 4.8438 0.55859 6.0938 1.6719 1.25 1.1055 1.875 2.9062 1.875 5.4062z"/>
  </symbol>
  <symbol id="d" overflow="visible">
   <path d="m7.8594-20.062v4.4375h5.1406v3.5625h-5.1406v6.6406c0 0.71875 0.14062 1.2109 0.42188 1.4688 0.28906 0.25 0.86328 0.375 1.7188 0.375h2.5781v3.5781h-4.2969c-1.9688 0-3.3672-0.41016-4.1875-1.2344-0.82422-0.82031-1.2344-2.2188-1.2344-4.1875v-6.6406h-2.4844v-3.5625h2.4844v-4.4375z"/>
  </symbol>
  <symbol id="f" overflow="visible">
   <path d="m13.031-13.344v-8.375h5.0312v21.719h-5.0312v-2.2656c-0.6875 0.92969-1.4492 1.6055-2.2812 2.0312-0.82422 0.42578-1.7773 0.64062-2.8594 0.64062-1.9297 0-3.5117-0.76562-4.75-2.2969-1.2422-1.5312-1.8594-3.5-1.8594-5.9062 0-2.4141 0.61719-4.3828 1.8594-5.9062 1.2383-1.5312 2.8203-2.2969 4.75-2.2969 1.0703 0 2.0234 0.21875 2.8594 0.65625 0.83203 0.42969 1.5938 1.0938 2.2812 2zm-3.2969 10.125c1.0703 0 1.8906-0.39062 2.4531-1.1719s0.84375-1.9141 0.84375-3.4062c0-1.4883-0.28125-2.625-0.84375-3.4062s-1.3828-1.1719-2.4531-1.1719c-1.0547 0-1.8672 0.39062-2.4375 1.1719-0.5625 0.78125-0.84375 1.918-0.84375 3.4062 0 1.4922 0.28125 2.625 0.84375 3.4062 0.57031 0.78125 1.3828 1.1719 2.4375 1.1719z"/>
  </symbol>
  <symbol id="k" overflow="visible">
   <path d="m10.719-3.2188c1.0703 0 1.8906-0.39062 2.4531-1.1719s0.84375-1.9141 0.84375-3.4062c0-1.4883-0.28125-2.625-0.84375-3.4062s-1.3828-1.1719-2.4531-1.1719c-1.0742 0-1.8984 0.39844-2.4688 1.1875-0.57422 0.78125-0.85938 1.9141-0.85938 3.3906 0 1.4805 0.28516 2.6172 0.85938 3.4062 0.57031 0.78125 1.3945 1.1719 2.4688 1.1719zm-3.3281-10.125c0.6875-0.90625 1.4453-1.5703 2.2812-2 0.84375-0.4375 1.8125-0.65625 2.9062-0.65625 1.9258 0 3.5039 0.76562 4.7344 2.2969 1.2383 1.5234 1.8594 3.4922 1.8594 5.9062 0 2.4062-0.62109 4.375-1.8594 5.9062-1.2305 1.5312-2.8086 2.2969-4.7344 2.2969-1.0938 0-2.0625-0.21484-2.9062-0.64062-0.83594-0.4375-1.5938-1.1133-2.2812-2.0312v2.2656h-4.9844v-21.719h4.9844z"/>
  </symbol>
  <symbol id="j" overflow="visible">
   <path d="m0.34375-15.625h5l4.2031 10.594 3.5625-10.594h5l-6.5625 17.109c-0.66797 1.7383-1.4453 2.9531-2.3281 3.6406-0.875 0.69531-2.0312 1.0469-3.4688 1.0469h-2.8906v-3.2812h1.5625c0.84375 0 1.457-0.13672 1.8438-0.40625 0.38281-0.27344 0.6875-0.75781 0.90625-1.4531l0.14062-0.4375z"/>
  </symbol>
  <symbol id="i" overflow="visible">
   <path d="m2.625-20.828h5.375v20.828h-5.375z"/>
  </symbol>
  <symbol id="v" overflow="visible">
   <path d="m8-16.766v12.703h1.9219c2.1953 0 3.875-0.53906 5.0312-1.625 1.1562-1.0938 1.7344-2.6758 1.7344-4.75 0-2.0625-0.57812-3.6289-1.7344-4.7031-1.1484-1.082-2.8242-1.625-5.0312-1.625zm-5.375-4.0625h5.6562c3.1641 0 5.5234 0.22656 7.0781 0.67188 1.5508 0.44922 2.8789 1.2148 3.9844 2.2969 0.97656 0.9375 1.7031 2.0234 2.1719 3.25 0.47656 1.2305 0.71875 2.6211 0.71875 4.1719 0 1.5742-0.24219 2.9805-0.71875 4.2188-0.46875 1.2305-1.1953 2.3125-2.1719 3.25-1.1172 1.0742-2.4531 1.8398-4.0156 2.2969-1.5625 0.44922-3.9141 0.67188-7.0469 0.67188h-5.6562z"/>
  </symbol>
  <symbol id="u" overflow="visible">
   <path d="m14.609-15.141v3.7969c-1.0742-0.44531-2.1094-0.78125-3.1094-1-0.99219-0.22656-1.9297-0.34375-2.8125-0.34375-0.94922 0-1.6523 0.12109-2.1094 0.35938-0.46094 0.24219-0.6875 0.60547-0.6875 1.0938 0 0.39844 0.17188 0.70312 0.51562 0.92188 0.35156 0.21875 0.97656 0.375 1.875 0.46875l0.89062 0.125c2.5508 0.33594 4.2695 0.875 5.1562 1.625 0.88281 0.74219 1.3281 1.9023 1.3281 3.4844 0 1.668-0.61719 2.9219-1.8438 3.7656-1.2305 0.83594-3.0625 1.25-5.5 1.25-1.0312 0-2.1016-0.085938-3.2031-0.25-1.1055-0.15625-2.2344-0.39844-3.3906-0.73438v-3.7969c0.98828 0.49219 2.0039 0.85547 3.0469 1.0938 1.0508 0.24219 2.1172 0.35938 3.2031 0.35938 0.97656 0 1.7109-0.12891 2.2031-0.39062 0.48828-0.26953 0.73438-0.67188 0.73438-1.2031 0-0.44531-0.17188-0.78125-0.51562-1-0.33594-0.21875-1.0078-0.39062-2.0156-0.51562l-0.875-0.10938c-2.2305-0.28125-3.793-0.79688-4.6875-1.5469-0.88672-0.75-1.3281-1.8945-1.3281-3.4375 0-1.6562 0.56641-2.8789 1.7031-3.6719 1.1328-0.80078 2.875-1.2031 5.2188-1.2031 0.91406 0 1.8789 0.070312 2.8906 0.20312 1.0195 0.13672 2.125 0.35547 3.3125 0.65625z"/>
  </symbol>
  <symbol id="h" overflow="visible">
   <path d="m2.4062-15.625h4.9844v15.625h-4.9844zm0-6.0938h4.9844v4.0781h-4.9844z"/>
  </symbol>
  <symbol id="t" overflow="visible">
   <path d="m2.625-20.828h6.8281l4.75 11.141 4.7812-11.141h6.8125v20.828h-5.0781v-15.234l-4.7969 11.234h-3.4062l-4.7969-11.234v15.234h-5.0938z"/>
  </symbol>
  <symbol id="g" overflow="visible">
   <path d="m18.109-9.5156v9.5156h-5.0156v-7.2812c0-1.3516-0.03125-2.2852-0.09375-2.7969-0.0625-0.50781-0.16797-0.88281-0.3125-1.125-0.19922-0.32031-0.46484-0.57031-0.79688-0.75-0.33594-0.1875-0.71484-0.28125-1.1406-0.28125-1.043 0-1.8672 0.40234-2.4688 1.2031-0.59375 0.80469-0.89062 1.918-0.89062 3.3438v7.6875h-4.9844v-15.625h4.9844v2.2812c0.75781-0.90625 1.5625-1.5703 2.4062-2 0.84375-0.4375 1.7734-0.65625 2.7969-0.65625 1.8125 0 3.1797 0.55469 4.1094 1.6562 0.9375 1.1055 1.4062 2.7148 1.4062 4.8281z"/>
  </symbol>
  <symbol id="s" overflow="visible">
   <path d="m12.688-21.719v3.2812h-2.7656c-0.71094 0-1.2031 0.13281-1.4844 0.39062-0.27344 0.25-0.40625 0.69531-0.40625 1.3281v1.0938h4.2656v3.5625h-4.2656v12.062h-5v-12.062h-2.4844v-3.5625h2.4844v-1.0938c0-1.6953 0.47266-2.9531 1.4219-3.7656 0.94531-0.82031 2.4141-1.2344 4.4062-1.2344z"/>
  </symbol>
  <symbol id="e" overflow="visible">
   <path d="m9.8438-12.438c-1.1172 0-1.9648 0.40234-2.5469 1.2031-0.57422 0.79297-0.85938 1.9375-0.85938 3.4375s0.28516 2.6484 0.85938 3.4375c0.58203 0.79297 1.4297 1.1875 2.5469 1.1875 1.082 0 1.9102-0.39453 2.4844-1.1875 0.58203-0.78906 0.875-1.9375 0.875-3.4375s-0.29297-2.6445-0.875-3.4375c-0.57422-0.80078-1.4023-1.2031-2.4844-1.2031zm0-3.5625c2.6875 0 4.7852 0.72656 6.2969 2.1719 1.5078 1.4492 2.2656 3.4609 2.2656 6.0312 0 2.5625-0.75781 4.5742-2.2656 6.0312-1.5117 1.4492-3.6094 2.1719-6.2969 2.1719-2.6992 0-4.8086-0.72266-6.3281-2.1719-1.5234-1.457-2.2812-3.4688-2.2812-6.0312 0-2.5703 0.75781-4.582 2.2812-6.0312 1.5195-1.4453 3.6289-2.1719 6.3281-2.1719z"/>
  </symbol>
  <symbol id="r" overflow="visible">
   <path d="m16.891-13.031c0.625-0.96875 1.3672-1.7031 2.2344-2.2031 0.875-0.50781 1.832-0.76562 2.875-0.76562 1.8008 0 3.1719 0.55469 4.1094 1.6562 0.9375 1.1055 1.4062 2.7148 1.4062 4.8281v9.5156h-5.0156v-8.1562c0.007812-0.11328 0.015625-0.23438 0.015625-0.35938v-0.5625c0-1.1133-0.16406-1.9141-0.48438-2.4062-0.32422-0.5-0.85156-0.75-1.5781-0.75-0.94922 0-1.6836 0.39062-2.2031 1.1719-0.51172 0.78125-0.77734 1.9141-0.79688 3.3906v7.6719h-5.0156v-8.1562c0-1.7266-0.15234-2.8359-0.45312-3.3281-0.29297-0.5-0.82422-0.75-1.5938-0.75-0.96094 0-1.6992 0.39844-2.2188 1.1875-0.52344 0.78125-0.78125 1.9023-0.78125 3.3594v7.6875h-5.0156v-15.625h5.0156v2.2812c0.61328-0.88281 1.3164-1.5469 2.1094-1.9844 0.80078-0.44531 1.6797-0.67188 2.6406-0.67188 1.082 0 2.0352 0.26172 2.8594 0.78125 0.83203 0.52344 1.4609 1.25 1.8906 2.1875z"/>
  </symbol>
  <symbol id="q" overflow="visible">
   <path d="m18.109-9.5156v9.5156h-5.0156v-7.25c0-1.375-0.03125-2.3164-0.09375-2.8281-0.0625-0.50781-0.16797-0.88281-0.3125-1.125-0.19922-0.32031-0.46484-0.57031-0.79688-0.75-0.33594-0.1875-0.71484-0.28125-1.1406-0.28125-1.043 0-1.8672 0.40234-2.4688 1.2031-0.59375 0.80469-0.89062 1.918-0.89062 3.3438v7.6875h-4.9844v-21.719h4.9844v8.375c0.75781-0.90625 1.5625-1.5703 2.4062-2 0.84375-0.4375 1.7734-0.65625 2.7969-0.65625 1.8125 0 3.1797 0.55469 4.1094 1.6562 0.9375 1.1055 1.4062 2.7148 1.4062 4.8281z"/>
  </symbol>
  <symbol id="p" overflow="visible">
   <path d="m2.625-20.828h6l7.5781 14.281v-14.281h5.0938v20.828h-6l-7.5781-14.297v14.297h-5.0938z"/>
  </symbol>
  <symbol id="o" overflow="visible">
   <path d="m2.2344-6.0781v-9.5469h5.0156v1.5625c0 0.84375-0.007812 1.9062-0.015625 3.1875v2.5625c0 1.25 0.03125 2.1562 0.09375 2.7188 0.0625 0.55469 0.17188 0.95312 0.32812 1.2031 0.20703 0.32422 0.47266 0.57422 0.79688 0.75 0.33203 0.17969 0.71094 0.26562 1.1406 0.26562 1.0391 0 1.8594-0.39844 2.4531-1.2031 0.60156-0.80078 0.90625-1.9102 0.90625-3.3281v-7.7188h4.9844v15.625h-4.9844v-2.2656c-0.76172 0.91797-1.5625 1.5938-2.4062 2.0312-0.83594 0.42578-1.7617 0.64062-2.7812 0.64062-1.8047 0-3.1797-0.55078-4.125-1.6562-0.9375-1.1133-1.4062-2.7227-1.4062-4.8281z"/>
  </symbol>
  <symbol id="n" overflow="visible">
   <path d="m2.625-20.828h8.9219c2.6445 0 4.6758 0.58984 6.0938 1.7656 1.4141 1.1797 2.125 2.8555 2.125 5.0312 0 2.1797-0.71094 3.8555-2.125 5.0312-1.418 1.1797-3.4492 1.7656-6.0938 1.7656h-3.5469v7.2344h-5.375zm5.375 3.8906v5.8125h2.9688c1.0391 0 1.8438-0.25 2.4062-0.75 0.57031-0.50781 0.85938-1.2266 0.85938-2.1562 0-0.9375-0.28906-1.6562-0.85938-2.1562-0.5625-0.5-1.3672-0.75-2.4062-0.75z"/>
  </symbol>
  <symbol id="m" overflow="visible">
   <path d="m2.4062-15.625h4.9844v15.344c0 2.0938-0.50781 3.6914-1.5156 4.7969-1 1.1016-2.4531 1.6562-4.3594 1.6562h-2.4688v-3.2812h0.875c0.94531 0 1.5977-0.21484 1.9531-0.64062 0.35156-0.42969 0.53125-1.2734 0.53125-2.5312zm0-6.0938h4.9844v4.0781h-4.9844z"/>
  </symbol>
  <symbol id="l" overflow="visible">
   <path d="m15.031-15.141v4.0781c-0.67969-0.46875-1.3594-0.8125-2.0469-1.0312-0.6875-0.22656-1.3984-0.34375-2.125-0.34375-1.3984 0-2.4844 0.41406-3.2656 1.2344-0.77344 0.8125-1.1562 1.9492-1.1562 3.4062 0 1.4609 0.38281 2.5938 1.1562 3.4062 0.78125 0.8125 1.8672 1.2188 3.2656 1.2188 0.78125 0 1.5195-0.11328 2.2188-0.34375 0.70703-0.22656 1.3594-0.57031 1.9531-1.0312v4.0938c-0.78125 0.28125-1.5781 0.49219-2.3906 0.64062-0.80469 0.14453-1.6055 0.21875-2.4062 0.21875-2.8242 0-5.0312-0.72266-6.625-2.1719-1.5859-1.4453-2.375-3.457-2.375-6.0312 0-2.582 0.78906-4.5938 2.375-6.0312 1.5938-1.4453 3.8008-2.1719 6.625-2.1719 0.8125 0 1.6133 0.074219 2.4062 0.21875 0.80078 0.13672 1.5977 0.35156 2.3906 0.64062z"/>
  </symbol>
 </defs>
 <g>
  <path d="m267.19 317.1h165.63c8.5273 0 16.074-3.3203 21.84-9.6016s8.4219-14.09 7.6953-22.582l-15.039-174.93c-1.3242-15.453-14.023-27.109-29.531-27.109h-23.812v-8.7812c0-24.113-19.617-43.738-43.738-43.738-24.121 0-43.738 19.621-43.738 43.738v8.7812h-24.281c-15.508 0-28.207 11.652-29.531 27.102l-15.023 174.95c-0.73047 8.4922 1.9297 16.305 7.6914 22.582 5.7656 6.2773 13.316 9.5977 21.84 9.5977zm59.723-243c0-12.863 10.461-23.324 23.324-23.324s23.324 10.461 23.324 23.324v8.7812h-46.652zm-68.922 212.57 15.035-174.94c0.41016-4.8125 4.3672-8.4414 9.1992-8.4414h24.281v17.949c0 5.6328 4.5703 10.207 10.207 10.207 5.6328 0 10.207-4.5703 10.207-10.207v-17.949h46.652v17.949c0 5.6328 4.5703 10.207 10.207 10.207 5.6328 0 10.207-4.5703 10.207-10.207v-17.949h23.812c4.8281 0 8.7812 3.6289 9.1992 8.4414l15.035 174.94c0.23828 2.7617-0.52734 4.9961-2.3984 7.0352-1.875 2.0391-4.0352 2.9883-6.8008 2.9883h-165.64c-2.7695 0-4.9297-0.94922-6.8008-2.9883-1.8711-2.0391-2.6328-4.2734-2.3984-7.0352zm345.22 94.562c-1.9961-5.6523-5.1953-10.73-9.5156-15.09-5.1016-5.1484-11.145-8.6641-17.949-10.445-8.332-2.1836-17.16-1.5703-44.789 7.8242-17.035 5.7891-42.121 15.238-64.258 23.578-12.754 4.8047-24.801 9.3438-33.75 12.594-9.5547 3.4688-15.332 5.4336-20.023 6.5391-0.51562-3.5195-1.1641-7.6562-1.9219-11.504-1.2383-6.3359-3.0352-13.641-6.9648-19.75-3.7031-5.7617-9.0742-10.188-16.422-13.555-6.4062-2.9297-14.176-5.0117-23.098-6.1875-8.3477-1.1016-17.652-1.4297-30.531-1.875l-1.1953-0.039063c-9.4531-0.33203-29.113-1.0156-38.172-1.6641-2.5273-0.17578-4.3672-0.36719-5.1445-0.67969-0.90234-0.36719-2.707-1.6797-5.2109-3.4922l-1.5312-1.1094c-16.473-11.898-30.164-19.789-41.852-24.121-14.777-5.4805-28.312-5.9297-36.309-5.875-2.5898-11.461-12.852-20.047-25.078-20.047h-58.918c-14.176 0-25.715 11.531-25.715 25.715v181.9c0 14.176 11.531 25.707 25.715 25.707h58.922c9.0977 0 17.359-4.9375 21.941-12.387 5.7031 0.14844 15.594 0.24609 31.613 0.3125 36.578 0.15234 107.23 0.15234 145.2 0.15234 37.633 0 40.703 0 71.789-15.965 8.0039-4.1133 79.285-40.836 115.52-63.355 29.355-18.246 36.199-27.32 38.57-37.68 1.5898-7.0039 1.3008-13.191-0.91797-19.5zm-418.41 122.7c0 0.27344-0.023437 0.55469-0.070312 0.82812 0 0.003907 0 0.011719-0.003907 0.015626-0.41016 2.543-2.6641 4.457-5.2305 4.457l-58.918 0.003906c-2.875 0-5.3047-2.4297-5.3047-5.3047v-181.89c0-2.875 2.4297-5.3047 5.3047-5.3047h58.922c2.875 0 5.3047 2.4297 5.3047 5.3047zm399.43-107.76c-0.48047 2.1016-1.7539 7.6797-29.445 24.891-26.996 16.777-78.32 44.172-114.07 62.531-26.695 13.707-26.695 13.707-62.461 13.707-37.941 0-108.58 0-145.11-0.15234-6.1523-0.023438-19.273-0.078126-27.93-0.23438l-0.003906-98.75c0.003906-15.977 0.003906-30.875 0.003906-41.77 0-8.2344 0-15.281 0.19531-19.621 6.8906 0.011718 17.25 0.48047 28.383 4.6055 14.762 5.4727 31.496 17.559 36.996 21.531l1.4961 1.0859c7.9023 5.7305 10.398 7.2617 20.879 8.0117 8.293 0.59375 23.602 1.1641 38.914 1.7031l1.1953 0.039062c12.309 0.42969 21.199 0.73828 28.57 1.7148 6.9102 0.91406 12.719 2.4336 17.281 4.5156 3.7891 1.7305 6.1758 3.5898 7.7422 6.0273 2.0781 3.2344 3.2852 8.4453 4.1016 12.629 0.56641 2.8906 1.0781 6.0234 1.5078 8.8906-17.152-0.15234-48.461-0.15234-64.496 0-16.098 0.15234-18.852 0.43359-25.539 4.3555l-0.17578 0.10156c-4.3477 2.5469-12.941 7.457-21.25 12.207l-0.21875 0.125c-4.8984 2.793-6.5938 9.0273-3.8008 13.926 2.8008 4.8906 9.0352 6.5938 13.926 3.8008l0.21875-0.125c8.3555-4.7773 17-9.7148 21.445-12.32l0.18359-0.10938c2.2969-1.3477 2.4336-1.4297 15.406-1.5547 15.965-0.15234 47.164-0.15234 64.207 0l1.4844 0.011718c17.273 0.16016 21.297-0.089843 46.047-9.0781 9.0625-3.293 21.164-7.8516 33.977-12.676 21.988-8.2852 46.914-17.668 63.629-23.355 24.621-8.3711 29.973-8.2109 33.047-7.4062 3.2305 0.84766 6.1328 2.5469 8.6289 5.0703 2.1836 2.1992 3.7812 4.7266 4.7656 7.5078 0.80078 2.2734 1.1172 4.4258 0.26953 8.1641zm-434.29-2.5703c-11.195 0-20.297 9.1094-20.297 20.297 0 11.195 9.1094 20.297 20.297 20.297s20.297-9.1094 20.297-20.297c0-11.195-9.1016-20.297-20.297-20.297zm0 20.383h-0.085938v-0.17188c0.011719-0.011719 0.058594-0.027344 0.085938-0.027344zm0.085938 0v-0.17188z"/>
  <use x="70" y="645.714844" xlink:href="#w"/>
  <use x="90.96875" y="645.714844" xlink:href="#c"/>
  <use x="105.058594" y="645.714844" xlink:href="#b"/>
  <use x="124.4375" y="645.714844" xlink:href="#a"/>
  <use x="143.714844" y="645.714844" xlink:href="#d"/>
  <use x="157.375" y="645.714844" xlink:href="#b"/>
  <use x="176.753906" y="645.714844" xlink:href="#f"/>
  <use x="207.152344" y="645.714844" xlink:href="#k"/>
  <use x="227.601562" y="645.714844" xlink:href="#j"/>
  <use x="256.175781" y="645.714844" xlink:href="#i"/>
  <use x="266.804688" y="645.714844" xlink:href="#f"/>
  <use x="287.257812" y="645.714844" xlink:href="#a"/>
  <use x="316.484375" y="645.714844" xlink:href="#v"/>
  <use x="340.199219" y="645.714844" xlink:href="#b"/>
  <use x="359.578125" y="645.714844" xlink:href="#u"/>
  <use x="376.585938" y="645.714844" xlink:href="#h"/>
  <use x="396.324219" y="645.714844" xlink:href="#t"/>
  <use x="424.757812" y="645.714844" xlink:href="#a"/>
  <use x="444.039062" y="645.714844" xlink:href="#c"/>
  <use x="458.128906" y="645.714844" xlink:href="#h"/>
  <use x="467.921875" y="645.714844" xlink:href="#a"/>
  <use x="487.203125" y="645.714844" xlink:href="#g"/>
  <use x="507.542969" y="645.714844" xlink:href="#a"/>
  <use x="70" y="674.285156" xlink:href="#s"/>
  <use x="82.429688" y="674.285156" xlink:href="#c"/>
  <use x="96.519531" y="674.285156" xlink:href="#e"/>
  <use x="116.148438" y="674.285156" xlink:href="#r"/>
  <use x="155.867188" y="674.285156" xlink:href="#d"/>
  <use x="169.527344" y="674.285156" xlink:href="#q"/>
  <use x="189.867188" y="674.285156" xlink:href="#b"/>
  <use x="219.191406" y="674.285156" xlink:href="#p"/>
  <use x="243.101562" y="674.285156" xlink:href="#e"/>
  <use x="262.730469" y="674.285156" xlink:href="#o"/>
  <use x="283.070312" y="674.285156" xlink:href="#g"/>
  <use x="313.359375" y="674.285156" xlink:href="#n"/>
  <use x="334.300781" y="674.285156" xlink:href="#c"/>
  <use x="348.390625" y="674.285156" xlink:href="#e"/>
  <use x="368.019531" y="674.285156" xlink:href="#m"/>
  <use x="377.8125" y="674.285156" xlink:href="#b"/>
  <use x="397.191406" y="674.285156" xlink:href="#l"/>
  <use x="414.125" y="674.285156" xlink:href="#d"/>
 </g>
</svg>
